<?xml version="1.0" standalone="no"?>
<!DOCTYPE svg PUBLIC "-//W3C//DTD SVG 20010904//EN"
 "http://www.w3.org/TR/2001/REC-SVG-20010904/DTD/svg10.dtd">
<svg version="1.0" xmlns="http://www.w3.org/2000/svg"
 width="616.000000pt" height="616.000000pt" viewBox="0 0 616.000000 616.000000"
 preserveAspectRatio="xMidYMid meet">
<metadata>
Created by potrace 1.11, written by Peter Selinger 2001-2013
</metadata>
<g transform="translate(0.000000,616.000000) scale(0.100000,-0.100000)"
fill="#000000" stroke="none">
<path d="M2704 6131 c3 -5 -2 -12 -11 -15 -9 -4 -20 -1 -25 6 -4 7 -8 8 -8 2
0 -6 -16 -10 -35 -9 -19 1 -32 -2 -29 -6 3 -5 -5 -9 -18 -10 -58 -2 -85 -6
-98 -14 -13 -8 -13 -6 0 11 9 12 4 10 -14 -6 -16 -14 -25 -18 -21 -10 7 12 6
13 -6 3 -12 -10 -18 -10 -28 0 -10 9 -12 9 -9 -2 3 -13 -10 -18 -62 -24 -14
-2 -24 -8 -23 -13 1 -5 -20 -9 -47 -9 -27 0 -48 -2 -48 -5 2 -18 -4 -23 -12
-10 -8 13 -10 12 -10 -2 0 -18 -6 -20 -67 -22 -17 0 -29 -5 -26 -10 4 -5 -1
-7 -11 -3 -9 4 -15 3 -12 -2 3 -5 -1 -11 -9 -15 -8 -3 -17 -1 -21 5 -4 7 -10
6 -18 0 -7 -6 -15 -8 -18 -5 -3 3 -5 -2 -5 -12 1 -9 -6 -18 -16 -19 -11 -2
-15 1 -10 8 4 7 0 6 -10 -1 -9 -8 -21 -11 -26 -8 -5 4 -17 -4 -25 -16 -9 -12
-16 -18 -16 -13 0 5 -5 4 -12 -3 -8 -8 -16 -8 -32 0 -19 10 -19 9 -8 -4 10
-13 10 -18 1 -24 -8 -4 -9 -3 -5 4 13 22 -13 12 -30 -10 -15 -20 -16 -21 -10
-3 6 20 6 20 -9 1 -10 -13 -15 -15 -15 -6 0 9 -4 8 -13 -5 -8 -10 -19 -15 -26
-11 -7 5 -10 2 -9 -6 2 -8 -6 -13 -20 -13 -13 0 -36 -11 -50 -25 -15 -13 -33
-23 -39 -22 -7 2 -13 -2 -13 -9 0 -8 -5 -7 -17 2 -10 8 -14 9 -10 2 4 -6 -1
-18 -13 -26 -11 -7 -18 -16 -15 -19 3 -3 -6 -4 -20 -3 -14 2 -23 -1 -20 -5 3
-5 -5 -14 -17 -21 -20 -10 -22 -10 -13 2 6 8 1 5 -10 -8 -12 -13 -26 -23 -33
-23 -7 0 -12 -6 -12 -12 0 -10 -3 -9 -9 1 -6 9 -11 10 -15 2 -4 -6 -4 -11 -1
-11 3 0 0 -6 -7 -14 -10 -10 -18 -11 -33 -4 -11 6 -17 7 -13 3 12 -12 -12 -47
-28 -41 -7 3 -13 2 -13 -2 4 -22 -3 -30 -20 -27 -18 3 -61 -35 -61 -55 0 -12
-26 -14 -33 -2 -2 4 -2 2 -1 -5 2 -6 -4 -17 -12 -24 -13 -10 -17 -10 -26 2 -8
11 -9 11 -4 -3 3 -10 1 -18 -5 -18 -6 0 -8 -4 -4 -9 3 -5 1 -12 -4 -15 -5 -4
-13 -1 -17 5 -5 8 -3 9 6 4 9 -5 11 -4 6 4 -4 6 -12 9 -17 5 -5 -3 -6 -10 -3
-16 5 -7 1 -9 -9 -5 -12 4 -14 2 -10 -10 4 -11 2 -14 -5 -9 -7 4 -12 1 -12 -8
0 -8 -5 -18 -12 -22 -7 -4 -8 -3 -4 4 4 7 5 12 2 12 -3 0 -12 -13 -21 -29 -10
-21 -21 -29 -35 -26 -23 4 -36 -10 -19 -21 8 -5 9 -3 4 6 -5 9 -4 11 4 6 6 -4
9 -12 5 -17 -3 -5 -10 -7 -15 -4 -5 4 -9 1 -9 -5 0 -6 -4 -9 -9 -5 -5 3 -13 0
-18 -7 -8 -13 -9 -18 -12 -39 0 -5 -5 -7 -11 -4 -5 3 -10 -1 -10 -9 0 -8 -5
-18 -12 -22 -7 -4 -8 -3 -4 4 4 7 5 12 2 12 -3 0 -12 -13 -21 -29 -10 -21 -21
-29 -35 -26 -23 4 -36 -10 -19 -21 8 -5 9 -3 4 6 -5 9 -4 11 4 6 6 -4 9 -12 5
-17 -3 -5 -9 -7 -14 -4 -5 3 -11 -4 -15 -15 -3 -11 -13 -20 -20 -20 -17 0 -37
-34 -27 -46 4 -5 0 -3 -9 4 -13 10 -19 9 -30 -5 -12 -14 -12 -16 0 -9 9 6 12
5 9 -5 -3 -8 -13 -14 -24 -14 -10 0 -19 -7 -19 -15 0 -8 -6 -26 -14 -39 -10
-19 -15 -21 -23 -10 -7 10 -8 8 -3 -7 5 -21 -16 -40 -40 -35 -5 1 -1 -7 10
-19 19 -21 19 -21 -1 -14 -10 4 -16 3 -12 -1 5 -5 -2 -15 -13 -23 -17 -12 -18
-16 -8 -23 10 -6 7 -9 -11 -9 -20 0 -22 -2 -10 -11 12 -9 11 -10 -7 -6 -20 4
-21 2 -13 -14 9 -15 7 -17 -5 -13 -10 4 -15 2 -13 -7 2 -9 -4 -13 -17 -11 -20
3 -20 3 -1 -11 15 -11 16 -16 6 -22 -9 -6 -11 -4 -5 5 5 9 4 11 -3 6 -7 -4
-12 -13 -12 -21 0 -19 -30 -46 -42 -39 -7 4 -8 2 -4 -5 4 -6 13 -9 19 -5 7 3
-1 -6 -18 -20 -21 -19 -24 -24 -10 -19 17 6 18 5 7 -10 -8 -8 -19 -15 -25 -13
-7 1 -9 1 -4 -1 14 -9 7 -25 -23 -50 -17 -13 -28 -29 -25 -33 3 -5 -1 -11 -7
-13 -9 -4 -9 -6 1 -6 11 -1 10 -5 -5 -16 -19 -15 -19 -15 1 -9 16 5 17 4 5 -5
-8 -6 -15 -16 -15 -23 0 -7 -8 -12 -17 -12 -13 1 -15 -3 -8 -22 5 -13 6 -23 2
-23 -22 4 -30 -3 -27 -21 2 -11 -1 -23 -7 -26 -7 -5 -8 -2 -3 6 5 9 4 11 -3 6
-9 -5 -9 -13 0 -29 11 -21 10 -21 -8 -7 -10 8 -16 10 -12 6 4 -5 3 -16 -4 -23
-9 -11 -9 -16 1 -23 11 -6 9 -9 -6 -14 -10 -3 -19 -15 -20 -26 -1 -13 2 -18
10 -13 8 4 7 1 -1 -9 -8 -9 -21 -14 -30 -11 -10 3 -13 1 -7 -4 16 -12 12 -33
-9 -49 -15 -11 -16 -14 -5 -14 9 0 16 -6 16 -14 0 -8 -6 -12 -13 -9 -6 2 -15
-1 -20 -8 -4 -7 -3 -10 2 -6 5 3 10 -3 10 -13 0 -12 -4 -16 -11 -10 -6 5 -11
-4 -12 -27 -1 -20 -7 -41 -14 -47 -9 -8 -10 -7 -4 4 5 8 4 11 0 7 -14 -12 -15
-38 -2 -30 8 5 8 2 0 -9 -7 -8 -10 -18 -6 -21 3 -4 1 -7 -6 -7 -9 0 -12 -10
-9 -30 4 -24 2 -27 -9 -18 -11 9 -12 7 -7 -7 6 -14 4 -16 -7 -10 -11 7 -12 6
-2 -6 10 -12 10 -18 0 -29 -10 -10 -9 -11 3 -5 13 8 13 7 1 -8 -7 -9 -10 -17
-5 -17 4 0 -1 -7 -12 -16 -10 -8 -12 -12 -4 -8 12 6 13 4 3 -7 -7 -7 -13 -17
-13 -22 0 -4 6 -5 13 -2 6 4 5 1 -3 -7 -9 -7 -15 -20 -15 -28 1 -8 -3 -21 -8
-27 -6 -9 -5 -19 4 -30 8 -9 9 -14 2 -10 -14 9 -28 -27 -17 -44 4 -7 -1 -18
-11 -26 -17 -11 -17 -13 -2 -13 10 0 14 -5 11 -15 -4 -8 -10 -13 -14 -10 -4 3
-6 -9 -5 -25 1 -17 -1 -30 -6 -30 -5 0 -9 -5 -9 -11 0 -5 4 -8 8 -5 10 6 9
-25 -2 -42 -4 -7 -2 -12 4 -12 6 0 8 -5 5 -10 -5 -8 -12 -7 -23 2 -12 10 -14
10 -8 0 13 -22 17 -62 6 -62 -7 0 -8 -5 -3 -12 12 -21 14 -48 2 -48 -5 0 -7
-5 -3 -12 13 -20 10 -58 -3 -58 -19 0 -19 -318 0 -326 7 -2 12 -21 12 -43 0
-22 -4 -37 -9 -34 -5 4 -6 1 -2 -6 12 -18 14 -121 3 -114 -5 3 -4 -4 2 -15 6
-11 11 -30 11 -41 0 -12 4 -21 9 -21 4 0 7 -14 5 -32 -2 -17 1 -37 7 -44 6 -8
9 -20 6 -29 -4 -8 -1 -17 5 -21 7 -4 6 -9 -3 -15 -9 -6 -10 -9 -2 -9 13 0 12
-18 -1 -39 -6 -10 -5 -12 2 -7 12 7 16 -5 13 -33 -2 -7 3 -10 9 -6 13 8 9 -17
-5 -27 -6 -5 -5 -8 4 -8 8 0 11 -6 7 -16 -3 -8 -2 -13 3 -10 9 6 24 -30 22
-51 -1 -7 4 -13 11 -13 9 0 9 -3 -2 -10 -8 -5 -10 -10 -4 -10 6 0 10 -19 9
-44 0 -36 2 -43 13 -34 10 9 11 6 2 -16 -6 -18 -6 -25 0 -21 9 6 15 -8 11 -29
-1 -5 5 -16 12 -25 8 -9 13 -26 12 -39 -1 -13 3 -26 8 -29 6 -4 7 -1 2 7 -5 8
-4 11 3 6 6 -4 9 -13 5 -22 -3 -8 3 -22 13 -30 11 -9 12 -12 4 -8 -12 6 -13 5
-3 -7 6 -8 12 -18 13 -24 6 -25 13 -34 24 -29 6 3 2 -2 -8 -10 -12 -9 -14 -16
-7 -16 7 0 19 -7 27 -15 14 -13 13 -15 -3 -16 -15 0 -16 -1 -2 -7 9 -4 15 -15
13 -24 -1 -10 3 -18 9 -18 5 0 8 -3 4 -6 -8 -8 16 -33 25 -27 5 2 4 -7 -2 -21
-7 -20 -6 -24 6 -19 10 4 12 0 8 -11 -4 -11 -1 -16 10 -16 9 0 13 -6 10 -15
-3 -8 1 -21 10 -30 8 -9 13 -22 9 -30 -4 -11 -1 -13 13 -8 17 6 17 5 6 -9 -12
-14 -9 -19 15 -33 15 -9 20 -14 11 -11 -12 3 -15 1 -11 -10 3 -7 10 -14 15
-14 6 0 8 -9 5 -21 -4 -16 -3 -18 8 -9 10 8 15 4 24 -20 6 -19 15 -29 22 -25
7 5 7 0 -1 -16 -7 -13 -9 -21 -5 -17 12 11 34 -15 23 -29 -6 -8 -3 -10 11 -6
13 3 21 1 21 -6 0 -7 -5 -9 -12 -5 -10 6 -10 5 -1 -8 7 -8 10 -17 7 -21 -3 -3
4 -10 15 -17 13 -6 19 -16 15 -23 -4 -7 -4 -9 0 -5 4 3 16 -1 26 -10 15 -12
17 -19 8 -29 -6 -8 -7 -13 -2 -12 23 4 33 -3 29 -21 -3 -14 2 -20 16 -20 10 0
19 -5 19 -11 0 -5 -6 -7 -12 -3 -9 5 -8 2 1 -9 10 -13 17 -14 27 -7 9 9 12 5
10 -15 -2 -14 -1 -24 1 -21 3 3 11 -1 18 -7 9 -9 10 -16 2 -25 -8 -10 -5 -14
11 -19 21 -5 27 -15 23 -37 -1 -5 6 -3 15 5 15 13 16 12 9 -10 -5 -16 -4 -21
4 -17 6 4 11 2 11 -3 0 -6 8 -11 18 -11 9 0 23 -9 30 -21 10 -15 10 -19 1 -14
-8 5 -10 4 -5 -3 4 -7 14 -12 22 -12 11 0 14 -6 9 -22 -5 -18 -4 -20 4 -8 10
13 12 13 20 0 5 -8 7 -19 3 -25 -3 -5 2 -4 11 4 15 12 17 12 11 -3 -4 -11 1
-22 15 -32 12 -9 18 -20 15 -26 -5 -7 -2 -8 5 -3 9 5 7 13 -10 31 -12 13 -20
24 -16 24 13 0 47 -45 43 -57 -3 -7 0 -15 6 -19 7 -4 8 -3 4 4 -4 7 -2 12 3
12 11 0 15 -15 12 -34 -1 -5 6 -3 15 5 16 12 17 12 11 -4 -5 -12 -1 -17 13
-17 10 0 21 -4 24 -9 4 -5 -3 -7 -14 -4 -11 3 -20 0 -20 -6 0 -5 6 -8 12 -6
18 7 35 -6 39 -29 2 -11 10 -21 17 -22 7 -1 8 0 2 3 -16 8 -11 23 6 16 10 -4
14 -14 11 -30 -3 -19 -2 -21 9 -12 11 9 14 8 14 -5 0 -8 11 -18 26 -22 17 -4
23 -11 19 -22 -4 -12 -3 -13 10 -2 12 10 15 10 15 -4 0 -9 5 -16 11 -16 5 0 7
5 4 10 -10 16 1 11 16 -7 8 -10 9 -14 2 -10 -6 4 -14 4 -17 -1 -2 -4 4 -9 15
-9 10 -1 26 -9 35 -17 9 -9 21 -13 27 -9 6 4 8 0 4 -10 -3 -9 0 -18 9 -21 10
-4 13 -1 9 7 -4 6 1 3 9 -7 9 -11 16 -17 16 -13 0 5 6 2 14 -5 8 -7 12 -16 9
-20 -2 -5 1 -8 7 -8 6 0 8 -5 4 -12 -5 -9 -2 -9 9 1 14 11 17 11 18 0 1 -8 1
-18 0 -23 -1 -5 6 -3 15 5 12 9 15 9 10 2 -5 -9 0 -13 14 -13 16 0 20 -5 16
-15 -4 -10 3 -17 22 -21 46 -10 53 -14 47 -24 -3 -6 1 -7 9 -4 10 4 16 1 16
-9 0 -9 8 -13 25 -12 13 2 30 -4 37 -13 12 -15 11 -16 -4 -3 -10 7 -18 9 -18
3 0 -12 24 -22 52 -22 12 0 19 -3 15 -6 -3 -4 0 -13 8 -20 16 -16 29 -19 20
-4 -3 6 -2 10 4 10 5 0 13 -10 16 -21 6 -17 9 -19 16 -8 6 10 9 11 9 2 0 -7 6
-12 13 -10 6 1 11 -4 9 -12 -2 -11 0 -12 11 -2 12 9 16 8 21 -5 4 -9 12 -14
22 -10 8 3 12 2 9 -4 -3 -6 5 -10 19 -10 18 0 26 -5 26 -17 0 -9 3 -13 7 -10
3 4 12 2 19 -4 8 -6 21 -9 29 -5 9 3 15 0 15 -11 0 -13 2 -14 17 -2 11 10 14
10 9 2 -4 -8 -1 -13 9 -13 9 0 14 -4 11 -8 -3 -5 1 -9 9 -9 8 0 11 5 8 11 -3
6 7 0 23 -14 15 -14 22 -17 15 -7 -7 9 -11 17 -9 17 8 0 48 -37 45 -41 -1 -2
2 -1 7 3 15 12 28 9 20 -3 -5 -8 1 -10 19 -7 15 3 24 2 22 -3 -3 -4 -1 -10 5
-14 5 -3 10 0 10 7 0 8 5 6 11 -4 5 -10 15 -18 20 -18 6 0 7 4 4 10 -3 6 1 7
9 4 9 -3 14 -9 12 -13 -3 -4 3 -7 12 -8 9 0 28 -4 42 -8 14 -4 37 -9 52 -12
17 -3 25 -10 21 -17 -4 -6 1 -5 10 3 11 9 17 10 17 2 0 -6 7 -11 15 -11 8 0
15 -6 15 -12 0 -10 3 -9 9 1 5 7 14 10 20 7 6 -4 9 -12 6 -17 -4 -5 3 -5 17 0
16 6 31 5 44 -2 10 -6 41 -12 68 -13 28 -1 52 -8 57 -15 7 -11 9 -11 9 -1 0 9
5 10 19 3 10 -6 35 -9 56 -7 24 1 39 -2 42 -11 4 -10 80 -13 394 -13 253 0
389 4 389 10 0 6 27 10 60 10 41 0 60 4 60 13 0 7 3 8 8 2 9 -13 35 -18 27 -5
-4 6 8 10 29 10 22 0 36 5 36 13 0 8 4 7 11 -3 8 -11 12 -12 16 -2 2 6 19 12
37 12 18 0 38 6 45 13 8 6 11 7 8 1 -3 -6 0 -11 8 -11 8 0 12 4 9 9 -3 4 4 8
16 8 14 0 19 4 14 13 -5 8 -2 8 9 -2 11 -9 17 -10 17 -2 0 6 11 11 25 11 14 0
25 6 25 13 0 8 4 7 11 -3 8 -11 12 -12 16 -2 2 6 14 12 24 12 13 0 18 4 13 13
-5 9 -4 9 5 1 9 -9 19 -9 37 0 13 6 24 14 24 18 0 4 9 5 20 3 11 -2 20 1 20 6
0 6 5 7 10 4 6 -3 10 -1 10 6 0 8 4 8 15 -1 12 -10 16 -9 21 3 3 9 14 14 25
12 11 -2 18 -1 15 3 -2 4 7 12 20 19 13 6 22 7 18 2 -3 -5 2 -6 10 -3 8 3 13
11 10 18 -3 7 2 13 10 13 8 0 13 -4 11 -8 -3 -4 6 -2 19 4 13 7 22 16 18 22
-3 5 2 4 11 -4 16 -13 22 -8 17 14 -1 5 2 7 6 3 4 -4 14 -2 22 5 13 10 14 9 7
-2 -5 -10 -4 -12 3 -7 7 4 12 15 12 24 0 11 3 13 8 6 7 -11 52 -2 52 10 0 3
-8 3 -17 -1 -10 -3 -15 -3 -11 2 4 4 18 8 30 9 13 1 22 7 21 12 -1 6 4 11 12
11 8 0 12 -5 9 -11 -3 -6 1 -3 9 6 11 14 16 15 26 5 10 -9 11 -8 6 4 -4 10 -1
20 6 25 8 5 10 3 4 -7 -5 -8 2 -5 15 6 13 11 20 14 16 8 -5 -9 -2 -11 8 -7 8
3 12 12 9 20 -4 10 0 12 11 8 11 -4 24 3 37 20 11 14 25 26 32 26 6 0 2 -7 -9
-16 -18 -14 -18 -15 4 -4 13 6 26 18 29 26 4 12 8 12 21 2 13 -12 14 -10 3 10
-12 22 -11 23 9 12 18 -10 21 -9 15 1 -6 9 -3 11 9 6 9 -4 15 -3 11 2 -3 5 2
17 11 26 14 13 19 14 25 3 7 -10 9 -9 9 4 0 9 5 20 12 24 7 4 8 3 4 -4 -4 -7
-3 -12 2 -12 6 0 13 11 16 25 4 15 11 22 20 19 8 -3 19 3 26 15 6 12 18 21 26
21 9 0 12 5 8 13 -5 8 -2 7 9 -2 15 -12 17 -12 11 3 -4 11 -1 16 10 16 9 0 19
7 23 16 5 13 7 13 14 2 6 -9 9 -6 9 11 0 19 3 21 14 12 11 -9 16 -9 22 0 4 8
3 9 -4 5 -7 -4 -12 -2 -12 3 0 6 5 11 11 11 6 0 18 8 27 18 10 10 13 12 8 5
-5 -8 -4 -13 2 -13 6 0 13 9 17 20 3 11 9 19 13 19 20 -3 25 2 12 11 -13 8
-12 10 3 10 10 0 17 3 15 8 -2 4 11 22 29 40 18 18 33 29 33 24 0 -5 -11 -19
-25 -32 -14 -13 -25 -27 -25 -32 0 -5 14 7 30 25 16 19 30 40 30 46 0 7 5 9
12 5 8 -5 9 -2 5 10 -4 10 -3 15 3 11 6 -3 10 -1 10 5 0 7 7 10 15 6 8 -3 14
-2 14 2 -3 19 2 33 10 28 5 -3 11 4 14 15 4 16 11 20 24 15 9 -4 14 -4 11 0
-11 10 11 44 28 44 8 0 12 4 9 10 -3 5 -1 10 5 10 6 0 8 5 4 13 -5 8 -2 7 9
-2 15 -12 17 -12 11 4 -5 13 -4 16 4 11 7 -4 12 -1 12 8 0 18 34 39 46 28 5
-4 2 1 -5 11 -12 15 -12 17 4 11 13 -5 16 -4 11 4 -4 7 -2 12 4 12 6 0 8 5 5
10 -3 6 -1 10 5 10 7 0 9 7 6 16 -5 14 -4 15 9 4 13 -11 14 -10 9 5 -6 14 -4
16 6 10 9 -5 11 -4 6 3 -8 13 29 53 40 44 5 -4 3 0 -4 9 -10 13 -10 19 1 28 8
6 17 8 20 4 4 -3 7 -1 7 6 0 7 5 9 12 5 6 -4 8 -3 4 4 -3 6 -1 14 5 17 5 4 8
14 4 22 -4 13 -3 14 9 4 12 -10 14 -8 12 13 -2 14 1 23 5 20 17 -10 31 7 19
21 -10 12 -8 13 10 10 18 -3 20 -2 10 10 -9 10 -6 15 11 20 17 6 19 9 8 16
-12 7 -11 9 1 10 8 1 19 1 24 0 5 -1 3 5 -4 14 -7 8 -10 18 -6 22 3 3 6 1 6
-7 0 -10 3 -10 15 0 11 9 12 16 5 25 -8 9 -3 17 15 29 14 9 23 21 20 26 -4 6
-1 10 6 10 7 0 10 3 7 6 -4 3 2 14 13 25 10 10 19 30 19 43 0 14 5 28 12 32 7
5 8 3 3 -6 -5 -9 -4 -11 4 -6 6 4 9 11 6 15 -7 12 41 102 50 93 5 -4 5 1 2 10
-4 10 -2 18 3 18 6 0 9 3 9 8 -3 18 2 33 9 28 5 -3 8 5 7 17 -1 12 4 28 12 35
17 17 17 35 1 27 -7 -4 -5 0 4 8 10 8 15 17 11 20 -3 4 -1 7 6 7 7 0 9 4 6 10
-3 5 -1 10 5 10 6 0 8 11 6 26 -3 15 -3 24 1 21 11 -12 31 18 21 31 -7 8 -7
12 0 12 13 0 36 76 27 90 -4 6 1 7 11 3 12 -5 15 -3 9 6 -4 8 -2 17 6 22 9 5
10 9 2 9 -6 0 -9 9 -6 20 3 11 10 20 15 20 6 0 5 7 -2 16 -8 8 -9 14 -4 13 20
-3 28 2 16 10 -10 6 -11 13 -4 27 6 11 13 32 17 47 3 15 9 25 14 23 5 -3 7 8
6 24 -1 17 1 32 5 35 5 3 6 14 3 25 -3 12 0 20 8 20 7 0 10 3 6 6 -3 3 -2 16
3 29 5 14 5 26 -3 34 -7 7 -7 11 0 11 6 0 8 11 5 25 -3 19 0 25 13 25 13 0 15
3 7 13 -6 7 -7 18 -3 25 4 8 6 24 3 38 -2 14 0 24 7 24 8 0 11 107 11 381 0
221 -4 378 -9 375 -5 -3 -12 1 -15 10 -9 22 -8 26 5 18 7 -4 7 1 -1 15 -8 15
-8 26 -1 34 6 8 6 18 1 27 -6 8 -10 30 -10 48 0 18 -4 31 -8 28 -5 -3 -8 13
-8 34 1 26 -3 40 -11 40 -9 0 -10 7 -4 23 8 21 -9 64 -20 52 -9 -8 -3 50 5 64
6 10 5 12 -2 7 -7 -4 -12 -1 -12 9 0 9 -4 14 -8 11 -5 -3 -9 1 -9 9 0 8 4 12
9 9 5 -4 5 2 -1 12 -16 31 -24 57 -25 87 -1 15 -8 32 -16 37 -13 9 -13 10 0
10 9 0 7 5 -8 16 -16 11 -20 19 -13 27 6 8 0 26 -20 55 -16 24 -25 41 -19 37
5 -3 10 -1 10 4 0 6 -5 11 -11 11 -8 0 -7 6 2 17 12 14 12 16 0 8 -10 -6 -13
-4 -9 6 3 9 -5 25 -19 39 -15 15 -21 26 -14 33 14 14 2 37 -17 29 -15 -5 -15
-4 -3 11 9 12 10 17 2 17 -7 0 -9 5 -6 10 3 6 -2 10 -12 11 -12 0 -13 2 -5 6
10 4 8 9 -6 19 -13 9 -19 23 -17 39 2 22 0 23 -13 13 -13 -12 -14 -10 -2 11
11 21 10 23 -4 18 -14 -5 -16 -3 -11 12 4 14 0 21 -14 26 -12 4 -18 12 -14 20
3 8 10 12 16 8 6 -3 7 -1 3 6 -4 6 -12 9 -17 6 -8 -6 -13 8 -10 28 0 4 -4 7
-10 7 -5 0 -7 5 -3 12 5 7 2 9 -9 5 -8 -3 -18 0 -21 8 -3 9 1 12 12 9 9 -2 7
1 -5 7 -13 7 -23 21 -23 31 0 11 -4 16 -10 13 -5 -3 -10 -2 -10 4 0 5 6 12 13
14 7 4 6 6 -4 6 -24 1 -43 27 -28 37 9 5 6 10 -9 15 -15 6 -20 13 -15 26 3 10
3 15 -1 11 -10 -9 -67 52 -60 64 7 10 -12 44 -23 40 -4 -2 -9 2 -12 9 -2 6 1
9 6 6 5 -3 10 0 10 8 0 8 -5 11 -11 7 -23 -14 -33 -9 -29 12 4 17 3 18 -6 6
-8 -11 -11 -12 -11 -2 0 8 -5 10 -12 6 -10 -6 -10 -4 0 7 14 16 16 33 2 24 -5
-3 -10 -1 -10 5 0 6 -4 9 -8 6 -5 -3 -9 1 -9 9 0 8 5 15 11 15 6 0 3 5 -7 11
-26 15 -78 90 -70 102 3 6 1 7 -6 3 -6 -4 -9 -11 -6 -16 3 -5 1 -12 -5 -15 -6
-4 -10 -3 -9 2 4 22 -2 32 -17 26 -14 -5 -15 -3 -4 18 12 22 12 23 -4 10 -15
-12 -17 -12 -14 0 2 9 -4 13 -16 11 -18 -3 -18 -2 -5 14 8 11 9 15 2 10 -8 -4
-13 -2 -13 4 0 6 -5 8 -12 4 -8 -5 -9 -2 -5 9 3 9 1 19 -5 23 -7 4 -8 3 -4 -4
4 -7 2 -12 -3 -12 -6 0 -11 6 -11 14 0 7 -8 20 -17 27 -11 10 -14 10 -9 2 4
-7 2 -13 -3 -13 -6 0 -11 10 -11 22 0 12 -3 19 -6 15 -3 -3 -18 5 -31 18 -18
16 -24 29 -19 41 4 10 4 15 0 11 -4 -4 -14 -1 -23 6 -14 10 -14 10 -6 -3 6 -9
2 -7 -8 4 -10 10 -16 25 -13 31 2 6 -2 12 -9 12 -7 0 -11 -7 -9 -16 2 -9 -2
-2 -10 14 -8 17 -12 34 -8 39 3 5 0 6 -6 2 -7 -4 -12 -2 -12 5 0 7 -3 9 -6 6
-4 -4 -1 -15 6 -24 8 -10 2 -7 -12 7 -14 14 -24 28 -22 31 2 3 -8 5 -22 3 -21
-2 -23 0 -13 12 9 11 7 14 -9 14 -12 0 -27 8 -34 18 -7 9 -20 17 -28 17 -9 0
-15 9 -14 22 0 17 -3 20 -12 12 -9 -7 -15 -2 -22 18 -7 17 -11 21 -11 11 -1
-20 0 -20 -64 37 -14 13 -28 20 -31 17 -9 -9 -46 35 -47 55 0 14 -2 13 -9 -4
-5 -13 -12 -23 -15 -23 -4 0 -3 5 0 10 3 6 1 10 -4 10 -6 0 -11 6 -11 14 0 7
-7 19 -16 26 -8 8 -14 9 -12 4 2 -5 0 -10 -4 -11 -5 -2 -8 0 -7 3 1 8 -22 24
-34 24 -5 0 -5 -6 -1 -12 4 -7 -5 -2 -19 11 -15 14 -27 32 -28 40 0 12 -2 12
-8 -2 -7 -18 -8 -18 -21 -1 -13 16 -13 17 0 9 9 -5 12 -4 7 1 -4 4 -18 9 -30
9 -14 0 -21 5 -19 14 3 12 1 12 -14 0 -15 -13 -16 -12 -10 11 5 16 4 20 -2 12
-15 -21 -67 1 -54 23 3 6 -1 4 -10 -3 -13 -10 -18 -9 -29 5 -13 17 -13 17 6 3
19 -14 19 -14 6 2 -7 10 -17 16 -21 13 -5 -3 -11 -1 -15 5 -3 5 -12 10 -18 10
-7 0 -6 -4 3 -10 8 -5 10 -10 4 -10 -6 0 -17 7 -24 15 -7 8 -16 13 -20 10 -4
-3 -11 2 -14 11 -3 9 -13 14 -21 10 -8 -3 -21 2 -30 10 -8 9 -15 11 -15 4 0
-7 -5 -6 -14 2 -8 7 -12 16 -10 19 2 3 -3 6 -11 6 -8 0 -15 -4 -15 -9 0 -5 -9
-4 -20 2 -12 7 -18 16 -13 23 4 7 0 7 -10 -2 -20 -16 -23 -1 -4 18 9 10 7 10
-11 0 -19 -12 -24 -12 -31 -1 -10 17 -21 17 -32 0 -7 -10 -9 -9 -9 3 0 9 -8
23 -17 30 -10 8 -14 9 -10 2 4 -6 3 -14 -3 -18 -5 -3 -10 -1 -10 4 0 6 -9 11
-20 11 -11 0 -20 5 -20 10 0 7 -7 7 -21 -1 -12 -6 -19 -7 -15 -1 3 5 -4 18
-17 28 -18 16 -20 16 -8 1 12 -15 11 -17 -8 -14 -13 2 -26 9 -30 16 -4 6 -15
9 -24 5 -10 -3 -23 -2 -30 3 -11 8 -24 11 -74 15 -7 1 -13 6 -13 11 0 5 -8 3
-17 -4 -11 -10 -14 -10 -9 -1 5 8 0 12 -14 12 -12 0 -19 4 -16 8 3 5 -1 9 -9
9 -8 0 -12 -4 -10 -7 3 -4 -8 -7 -24 -6 -16 0 -27 4 -25 8 3 5 -4 8 -15 8 -12
0 -21 6 -21 13 0 9 -2 9 -9 -1 -9 -14 -13 -15 -48 -1 -13 5 -25 4 -28 -2 -4
-5 -11 -7 -16 -3 -5 3 -7 10 -4 15 4 5 -146 9 -385 9 -228 0 -389 -4 -386 -9z
m-1421 -586 c-3 -9 -8 -14 -10 -11 -3 3 -2 9 2 15 9 16 15 13 8 -4z m-303
-255 c0 -5 -5 -10 -11 -10 -5 0 -7 5 -4 10 3 6 8 10 11 10 2 0 4 -4 4 -10z
m4455 -230 c3 -5 1 -10 -4 -10 -6 0 -11 5 -11 10 0 6 2 10 4 10 3 0 8 -4 11
-10z m51 -68 c-6 -5 -36 23 -36 34 0 4 9 -1 20 -11 11 -10 18 -20 16 -23z
m-5071 -431 c-3 -6 -11 -11 -17 -11 -6 0 -6 6 2 15 14 17 26 13 15 -4z m125
-3181 c0 -5 -7 -7 -15 -4 -8 4 -15 8 -15 10 0 2 7 4 15 4 8 0 15 -4 15 -10z
m167 -236 c-3 -3 -12 -4 -19 -1 -8 3 -5 6 6 6 11 1 17 -2 13 -5z m743 -654 c0
-5 -5 -10 -11 -10 -5 0 -7 5 -4 10 3 6 8 10 11 10 2 0 4 -4 4 -10z"/>
<path d="M1635 5801 c-3 -5 -2 -12 3 -15 5 -3 9 1 9 9 0 17 -3 19 -12 6z"/>
<path d="M4615 5740 c3 -5 8 -10 11 -10 2 0 4 5 4 10 0 6 -5 10 -11 10 -5 0
-7 -4 -4 -10z"/>
<path d="M5214 5286 c11 -9 24 -16 30 -16 12 0 7 5 -24 19 -24 11 -24 11 -6
-3z"/>
<path d="M796 5138 c3 -5 10 -6 15 -3 13 9 11 12 -6 12 -8 0 -12 -4 -9 -9z"/>
<path d="M5616 4818 c3 -5 10 -6 15 -3 13 9 11 12 -6 12 -8 0 -12 -4 -9 -9z"/>
<path d="M5866 4405 c-3 -8 -1 -15 4 -15 6 0 10 7 10 15 0 8 -2 15 -4 15 -2 0
-6 -7 -10 -15z"/>
<path d="M5555 1240 c-3 -5 -1 -10 4 -10 6 0 11 5 11 10 0 6 -2 10 -4 10 -3 0
-8 -4 -11 -10z"/>
<path d="M765 1040 c3 -5 8 -10 11 -10 2 0 4 5 4 10 0 6 -5 10 -11 10 -5 0 -7
-4 -4 -10z"/>
</g>
</svg>
